<?xml version="1.0" encoding="UTF-8"?>
<svg width="1322px" height="152px" viewBox="0 0 1322 152" version="1.1" xmlns="http://www.w3.org/2000/svg" xmlns:xlink="http://www.w3.org/1999/xlink">
    <!-- Generator: Sketch 59.1 (86144) - https://sketch.com -->
    <title>GDG-logo-color-warsaw</title>
    <desc>Created with Sketch.</desc>
    <g id="GDG-logos" stroke="none" stroke-width="1" fill="none" fill-rule="evenodd">
        <g id="GDG-logo" transform="translate(0.000000, -2196.000000)" fill-rule="nonzero">
            <g id="GDG-logo-color" transform="translate(0.000000, 1757.000000)">
                <g id="GDG-logo-color-warsaw" transform="translate(0.000000, 439.000000)">
                    <path d="M1584.05862,36.472 L1613.01062,36.472 L1653.05062,198.48 L1656.74662,213.572 L1657.97862,213.572 L1662.59862,198.48 L1711.87862,36.472 L1738.98262,36.472 L1786.10662,198.48 L1790.72662,213.572 L1791.95862,213.572 L1835.38662,36.472 L1864.33862,36.472 L1804.89462,257 L1777.79062,257 L1730.97462,97.456 L1726.04662,80.208 L1724.81462,80.208 L1719.57862,97.456 L1670.91462,257 L1643.81062,257 L1584.05862,36.472 Z M1920.56262,261.928 C1909.0639,261.928 1898.79733,259.669356 1889.76262,255.152 C1880.72791,250.634644 1873.74664,244.423373 1868.81862,236.518 C1863.89059,228.612627 1861.42662,219.629384 1861.42662,209.568 C1861.42662,192.935917 1867.68922,179.948713 1880.21462,170.606 C1892.74002,161.263287 1908.55052,156.592 1927.64662,156.592 C1937.092,156.592 1945.86991,157.618656 1953.98062,159.672 C1962.09133,161.725344 1968.3026,164.086653 1972.61462,166.756 L1972.61462,157.208 C1972.61462,145.503941 1968.50799,136.110035 1960.29462,129.026 C1952.08124,121.941965 1941.71202,118.4 1929.18662,118.4 C1920.35724,118.4 1912.24666,120.299314 1904.85462,124.098 C1897.46258,127.896686 1891.61064,133.183966 1887.29862,139.96 L1867.58662,125.176 C1873.74665,115.730619 1882.21657,108.338693 1892.99662,103 C1903.77667,97.6613066 1915.73722,94.992 1928.87862,94.992 C1950.23339,94.992 1967.01922,100.587277 1979.23662,111.778 C1991.45401,122.968723 1997.56262,138.21457 1997.56262,157.516 L1997.56262,257 L1972.61462,257 L1972.61462,234.516 L1971.38262,234.516 C1966.86526,242.113371 1960.08933,248.581307 1951.05462,253.92 C1942.01991,259.258693 1931.85601,261.928 1920.56262,261.928 Z M1923.02662,238.828 C1931.856,238.828 1940.06925,236.569356 1947.66662,232.052 C1955.26399,227.534644 1961.32126,221.477371 1965.83862,213.88 C1970.35598,206.282629 1972.61462,197.966712 1972.61462,188.932 C1967.68659,185.64665 1961.62932,182.977344 1954.44262,180.924 C1947.25592,178.870656 1939.65866,177.844 1931.65062,177.844 C1917.27721,177.844 1906.44599,180.821304 1899.15662,186.776 C1891.86725,192.730696 1888.22262,200.430619 1888.22262,209.876 C1888.22262,218.500043 1891.50792,225.481307 1898.07862,230.82 C1904.64932,236.158693 1912.96524,238.828 1923.02662,238.828 Z M2027.60662,99.92 L2052.55462,99.92 L2052.55462,125.176 L2053.78662,125.176 C2056.86663,116.551957 2062.82124,109.416695 2071.65062,103.77 C2080.48,98.1233051 2089.7199,95.3 2099.37062,95.3 C2106.55732,95.3 2112.71726,96.3266564 2117.85062,98.38 L2117.85062,126.716 C2111.27992,123.43065 2103.88799,121.788 2095.67462,121.788 C2088.07725,121.788 2081.09598,123.943978 2074.73062,128.256 C2068.36525,132.568022 2063.2833,138.36863 2059.48462,145.658 C2055.68593,152.94737 2053.78662,160.801291 2053.78662,169.22 L2053.78662,257 L2027.60662,257 L2027.60662,99.92 Z M2185.47062,261.928 C2168.6332,261.928 2154.56801,257.975373 2143.27462,250.07 C2131.98123,242.164627 2123.97331,232.052062 2119.25062,219.732 L2142.65862,209.26 C2146.55997,218.705381 2152.36058,225.994641 2160.06062,231.128 C2167.76066,236.261359 2176.23057,238.828 2185.47062,238.828 C2195.32667,238.828 2203.74525,236.82602 2210.72662,232.822 C2217.70799,228.81798 2221.19862,223.120037 2221.19862,215.728 C2221.19862,209.1573 2218.42665,203.87002 2212.88262,199.866 C2207.33859,195.86198 2198.61201,192.422681 2186.70262,189.548 L2167.60662,184.62 C2155.08122,181.539985 2144.81466,176.304037 2136.80662,168.912 C2128.79858,161.519963 2124.79462,151.972059 2124.79462,140.268 C2124.79462,131.233288 2127.51526,123.276701 2132.95662,116.398 C2138.39798,109.519299 2145.63591,104.232018 2154.67062,100.536 C2163.70533,96.8399815 2173.45857,94.992 2183.93062,94.992 C2197.68802,94.992 2209.95657,97.9693036 2220.73662,103.924 C2231.51667,109.878696 2239.16526,118.194613 2243.68262,128.872 L2220.89062,139.344 C2213.90925,125.381264 2201.48671,118.4 2183.62262,118.4 C2174.99858,118.4 2167.45265,120.40198 2160.98462,124.406 C2154.51659,128.41002 2151.28262,133.491969 2151.28262,139.652 C2151.28262,145.401362 2153.54126,150.072649 2158.05862,153.666 C2162.57598,157.259351 2169.35191,160.185322 2178.38662,162.444 L2201.17862,168.296 C2216.5787,172.197353 2228.17991,177.997961 2235.98262,185.698 C2243.78532,193.398038 2247.68662,202.791945 2247.68662,213.88 C2247.68662,223.530715 2244.91465,232.00063 2239.37062,239.29 C2233.82659,246.57937 2226.332,252.174647 2216.88662,256.076 C2207.44124,259.977353 2196.96934,261.928 2185.47062,261.928 Z M2321.77462,261.928 C2310.2759,261.928 2300.00933,259.669356 2290.97462,255.152 C2281.93991,250.634644 2274.95864,244.423373 2270.03062,236.518 C2265.10259,228.612627 2262.63862,219.629384 2262.63862,209.568 C2262.63862,192.935917 2268.90122,179.948713 2281.42662,170.606 C2293.95202,161.263287 2309.76252,156.592 2328.85862,156.592 C2338.304,156.592 2347.08191,157.618656 2355.19262,159.672 C2363.30333,161.725344 2369.5146,164.086653 2373.82662,166.756 L2373.82662,157.208 C2373.82662,145.503941 2369.71999,136.110035 2361.50662,129.026 C2353.29324,121.941965 2342.92402,118.4 2330.39862,118.4 C2321.56924,118.4 2313.45866,120.299314 2306.06662,124.098 C2298.67458,127.896686 2292.82264,133.183966 2288.51062,139.96 L2268.79862,125.176 C2274.95865,115.730619 2283.42857,108.338693 2294.20862,103 C2304.98867,97.6613066 2316.94922,94.992 2330.09062,94.992 C2351.44539,94.992 2368.23122,100.587277 2380.44862,111.778 C2392.66601,122.968723 2398.77462,138.21457 2398.77462,157.516 L2398.77462,257 L2373.82662,257 L2373.82662,234.516 L2372.59462,234.516 C2368.07726,242.113371 2361.30133,248.581307 2352.26662,253.92 C2343.23191,259.258693 2333.06801,261.928 2321.77462,261.928 Z M2324.23862,238.828 C2333.068,238.828 2341.28125,236.569356 2348.87862,232.052 C2356.47599,227.534644 2362.53326,221.477371 2367.05062,213.88 C2371.56798,206.282629 2373.82662,197.966712 2373.82662,188.932 C2368.89859,185.64665 2362.84132,182.977344 2355.65462,180.924 C2348.46792,178.870656 2340.87066,177.844 2332.86262,177.844 C2318.48921,177.844 2307.65799,180.821304 2300.36862,186.776 C2293.07925,192.730696 2289.43462,200.430619 2289.43462,209.876 C2289.43462,218.500043 2292.71992,225.481307 2299.29062,230.82 C2305.86132,236.158693 2314.17724,238.828 2324.23862,238.828 Z M2408.49062,99.92 L2435.28662,99.92 L2472.86262,224.044 L2473.17062,224.044 L2512.59462,99.92 L2539.69862,99.92 L2579.43062,223.736 L2579.73862,223.736 L2617.00662,99.92 L2643.49462,99.92 L2592.67462,257 L2566.18662,257 L2525.53062,131.644 L2485.18262,257 L2459.00262,257 L2408.49062,99.92 Z" id="Warsaw" fill="#676C72"></path>
                    <g id="GDG-text-gray" transform="translate(767.000000, 36.000000)" fill="#676C71">
                        <path d="M56.9300065,215.113197 C39.6319714,205.208398 25.2889688,190.868847 15.3800065,173.573197 C5.12000649,155.933197 -0.00666017316,136.443197 0,115.103197 C0.00667316017,93.763197 5.13333983,74.2698637 15.3800065,56.623197 C35.7141815,21.3300963 73.4592986,-0.298570124 114.190006,0.00319699445 C129.837272,-0.103953197 145.35692,2.8233852 159.890006,8.62319699 C174.150006,14.363197 185.896673,22.4665303 195.130006,32.933197 L176.330006,51.703197 C169.194524,42.9650978 159.993991,36.1428873 149.560006,31.853197 C124.051729,21.2965606 95.1316327,22.8817776 70.9300065,36.163197 C57.5083683,43.6361814 46.3474204,54.586415 38.6200065,67.863197 C30.5133398,81.503197 26.4600065,97.2498637 26.4600065,115.103197 C26.4600065,132.95653 30.5133398,148.703197 38.6200065,162.343197 C46.3737398,175.648664 57.5922618,186.601066 71.0800065,194.033197 C84.3391354,201.450309 99.2873867,205.321699 114.480006,205.273197 C129.246673,205.273197 141.606673,202.963197 151.560006,198.343197 C161.217115,193.93667 169.940921,187.721383 177.260006,180.033197 C182.803353,173.958421 187.185819,166.918682 190.190006,159.263197 C193.587064,150.647738 195.663805,141.56874 196.350006,132.333197 L114.780006,132.333197 L114.780006,108.023197 L220.650006,108.023197 C221.62916,113.301386 222.14446,118.655148 222.190074,124.023197 C222.204032,137.471105 220.018517,150.830778 215.720006,163.573197 C211.514408,176.230437 204.463924,187.755463 195.110006,197.263197 C174.790006,219.223197 147.816673,230.197592 114.190006,230.193197 C94.0990682,230.370776 74.327282,225.163677 56.9300065,215.113197 Z" id="Path"></path>
                        <path d="M254.810006,4.92319699 L321.280006,4.92319699 C343.840006,4.92319699 363.536673,9.58986366 380.370006,18.923197 C396.817281,27.8574713 410.306538,41.3884262 419.190006,57.863197 C428.216673,74.4698637 432.730006,93.5498637 432.730006,115.103197 C432.730006,136.65653 428.216673,155.73653 419.190006,172.343197 C410.315591,188.805179 396.8453,202.331059 380.420006,211.273197 C363.586673,220.60653 343.890006,225.273197 321.330006,225.273197 L254.860006,225.273197 L254.810006,4.92319699 Z M321.280006,200.343197 C347.33334,200.343197 368.000006,192.85653 383.280006,177.883197 C398.560006,162.909864 406.196673,141.983197 406.190011,115.103197 C406.190011,88.223197 398.546673,67.2965303 383.260006,52.323197 C367.97334,37.3498637 347.306673,29.8598637 321.260006,29.853197 L280.640006,29.853197 L280.640006,200.343197 L321.280006,200.343197 Z" id="Shape"></path>
                        <path d="M511.190006,215.113197 C493.893868,205.209311 479.553893,190.869336 469.650006,173.573197 C459.34334,155.933197 454.190006,136.443197 454.190006,115.103197 C454.190006,93.763197 459.320006,74.2698637 469.580006,56.623197 C489.898123,21.3286981 527.63613,-0.302461627 568.360006,0.00319699445 C584.007409,-0.105472836 599.527346,2.82192015 614.060006,8.62319699 C628.320006,14.363197 640.066673,22.4665303 649.300006,32.933197 L630.530006,51.703197 C623.39131,42.9684663 614.191702,36.1469412 603.760006,31.853197 C592.653406,27.1915732 580.714844,24.837203 568.670006,24.933197 C553.449375,24.8532975 538.468251,28.722617 525.190006,36.163197 C511.767669,43.6387262 500.604086,54.5881565 492.870006,67.863197 C484.770006,81.503197 480.720006,97.2498637 480.720006,115.103197 C480.720006,132.95653 484.770006,148.703197 492.870006,162.343197 C500.630057,175.647192 511.851292,186.598869 525.340006,194.033197 C538.594993,201.451601 553.540375,205.32314 568.730006,205.273197 C583.496673,205.273197 595.860006,202.963197 605.820006,198.343197 C615.474042,193.93643 624.194525,187.721092 631.510006,180.033197 C637.049564,173.955552 641.431572,166.916549 644.440006,159.263197 C647.838491,150.648701 649.912027,141.568974 650.590006,132.333197 L569.040006,132.333197 L569.040006,108.023197 L674.900006,108.023197 C675.884288,113.300664 676.399631,118.654879 676.44011,124.023197 C676.457433,137.470567 674.275294,150.830255 669.980006,163.573197 C665.770844,176.231073 658.716975,187.756041 649.360006,197.263197 C629.046673,219.223197 602.066673,230.199864 568.420006,230.193197 C548.339591,230.362487 528.579615,225.15577 511.190006,215.113197 L511.190006,215.113197 Z" id="Path"></path>
                    </g>
                    <g id="GDG-icon-color">
                        <path d="M150.9,151.9 L252.46,93.26 C275.537667,79.0805887 283.128684,49.1035755 269.580849,25.6495648 C256.033015,2.19555411 226.273074,-6.20627545 202.46,6.7 L27,108 L150.9,151.9 Z" id="Path" fill="#EA4335"></path>
                        <path d="M227.43,302.61 C250.031719,302.577789 269.801424,287.387304 275.653601,265.556346 C281.505777,243.725387 271.98505,220.683082 252.43,209.35 L77,108 C61.5029256,98.4125582 42.0170339,98.0154994 26.1422639,106.963686 C10.267494,115.911872 0.518089903,132.78809 0.694131578,151.010234 C0.874990168,169.232377 10.9530316,185.914425 27,194.55 L202.49,295.9 C210.066408,300.296246 218.670494,302.61 227.43,302.61 L227.43,302.61 Z" id="Path" fill="#4285F4"></path>
                        <path d="M400,302.61 C408.759506,302.61 417.363592,300.296246 424.94,295.9 L600.44,194.58 L478.11,149.8 L375,209.35 C355.44495,220.683082 345.924223,243.725387 351.776399,265.556346 C357.628576,287.387304 377.398281,302.577789 400,302.61 Z" id="Path" fill="#FBBC04"></path>
                        <path d="M575.4,201.29 C598.001719,201.257789 617.771424,186.067304 623.623601,164.236346 C629.475777,142.405387 619.95505,119.363082 600.4,108.03 L424.94,6.7 C401.126926,-6.20627545 371.366985,2.19555411 357.819151,25.6495648 C344.271316,49.1035755 351.862333,79.0805887 374.94,93.26 L550.46,194.58 C558.038792,198.970515 566.641308,201.284986 575.4,201.29 L575.4,201.29 Z" id="Path" fill="#0F9D58"></path>
                    </g>
                </g>
            </g>
        </g>
    </g>
</svg>
