<?xml version="1.0" encoding="UTF-8"?>
<svg width="1444px" height="303px" viewBox="0 0 1444 303" version="1.1" xmlns="http://www.w3.org/2000/svg" xmlns:xlink="http://www.w3.org/1999/xlink">
    <!-- Generator: Sketch 59.1 (86144) - https://sketch.com -->
    <title>GDG-logo-color</title>
    <desc>Created with Sketch.</desc>
    <g id="GDG-logos" stroke="none" stroke-width="1" fill="none" fill-rule="evenodd">
        <g id="GDG-logo" transform="translate(0.000000, -1757.000000)" fill-rule="nonzero">
            <g id="GDG-logo-color" transform="translate(0.000000, 1757.000000)">
                <g>
                    <g id="GDG-text-color" transform="translate(767.000000, 36.000000)" fill="#676C72">
                        <path d="M56.9300065,215.113197 C39.6319714,205.208398 25.2889688,190.868847 15.3800065,173.573197 C5.12000649,155.933197 -0.00666017316,136.443197 0,115.103197 C0.00667316017,93.763197 5.13333983,74.2698637 15.3800065,56.623197 C35.7141815,21.3300963 73.4592986,-0.298570124 114.190006,0.00319699445 C129.837272,-0.103953197 145.35692,2.8233852 159.890006,8.62319699 C174.150006,14.363197 185.896673,22.4665303 195.130006,32.933197 L176.330006,51.703197 C169.194524,42.9650978 159.993991,36.1428873 149.560006,31.853197 C124.051729,21.2965606 95.1316327,22.8817776 70.9300065,36.163197 C57.5083683,43.6361814 46.3474204,54.586415 38.6200065,67.863197 C30.5133398,81.503197 26.4600065,97.2498637 26.4600065,115.103197 C26.4600065,132.95653 30.5133398,148.703197 38.6200065,162.343197 C46.3737398,175.648664 57.5922618,186.601066 71.0800065,194.033197 C84.3391354,201.450309 99.2873867,205.321699 114.480006,205.273197 C129.246673,205.273197 141.606673,202.963197 151.560006,198.343197 C161.217115,193.93667 169.940921,187.721383 177.260006,180.033197 C182.803353,173.958421 187.185819,166.918682 190.190006,159.263197 C193.587064,150.647738 195.663805,141.56874 196.350006,132.333197 L114.780006,132.333197 L114.780006,108.023197 L220.650006,108.023197 C221.62916,113.301386 222.14446,118.655148 222.190074,124.023197 C222.204032,137.471105 220.018517,150.830778 215.720006,163.573197 C211.514408,176.230437 204.463924,187.755463 195.110006,197.263197 C174.790006,219.223197 147.816673,230.197592 114.190006,230.193197 C94.0990682,230.370776 74.327282,225.163677 56.9300065,215.113197 Z" id="Path"></path>
                        <path d="M254.810006,4.92319699 L321.280006,4.92319699 C343.840006,4.92319699 363.536673,9.58986366 380.370006,18.923197 C396.817281,27.8574713 410.306538,41.3884262 419.190006,57.863197 C428.216673,74.4698637 432.730006,93.5498637 432.730006,115.103197 C432.730006,136.65653 428.216673,155.73653 419.190006,172.343197 C410.315591,188.805179 396.8453,202.331059 380.420006,211.273197 C363.586673,220.60653 343.890006,225.273197 321.330006,225.273197 L254.860006,225.273197 L254.810006,4.92319699 Z M321.280006,200.343197 C347.33334,200.343197 368.000006,192.85653 383.280006,177.883197 C398.560006,162.909864 406.196673,141.983197 406.190011,115.103197 C406.190011,88.223197 398.546673,67.2965303 383.260006,52.323197 C367.97334,37.3498637 347.306673,29.8598637 321.260006,29.853197 L280.640006,29.853197 L280.640006,200.343197 L321.280006,200.343197 Z" id="Shape"></path>
                        <path d="M511.190006,215.113197 C493.893868,205.209311 479.553893,190.869336 469.650006,173.573197 C459.34334,155.933197 454.190006,136.443197 454.190006,115.103197 C454.190006,93.763197 459.320006,74.2698637 469.580006,56.623197 C489.898123,21.3286981 527.63613,-0.302461627 568.360006,0.00319699445 C584.007409,-0.105472836 599.527346,2.82192015 614.060006,8.62319699 C628.320006,14.363197 640.066673,22.4665303 649.300006,32.933197 L630.530006,51.703197 C623.39131,42.9684663 614.191702,36.1469412 603.760006,31.853197 C592.653406,27.1915732 580.714844,24.837203 568.670006,24.933197 C553.449375,24.8532975 538.468251,28.722617 525.190006,36.163197 C511.767669,43.6387262 500.604086,54.5881565 492.870006,67.863197 C484.770006,81.503197 480.720006,97.2498637 480.720006,115.103197 C480.720006,132.95653 484.770006,148.703197 492.870006,162.343197 C500.630057,175.647192 511.851292,186.598869 525.340006,194.033197 C538.594993,201.451601 553.540375,205.32314 568.730006,205.273197 C583.496673,205.273197 595.860006,202.963197 605.820006,198.343197 C615.474042,193.93643 624.194525,187.721092 631.510006,180.033197 C637.049564,173.955552 641.431572,166.916549 644.440006,159.263197 C647.838491,150.648701 649.912027,141.568974 650.590006,132.333197 L569.040006,132.333197 L569.040006,108.023197 L674.900006,108.023197 C675.884288,113.300664 676.399631,118.654879 676.44011,124.023197 C676.457433,137.470567 674.275294,150.830255 669.980006,163.573197 C665.770844,176.231073 658.716975,187.756041 649.360006,197.263197 C629.046673,219.223197 602.066673,230.199864 568.420006,230.193197 C548.339591,230.362487 528.579615,225.15577 511.190006,215.113197 L511.190006,215.113197 Z" id="Path"></path>
                    </g>
                    <g id="GDG-icon-color">
                        <path d="M150.9,151.9 L252.46,93.26 C275.537667,79.0805887 283.128684,49.1035755 269.580849,25.6495648 C256.033015,2.19555411 226.273074,-6.20627545 202.46,6.7 L27,108 L150.9,151.9 Z" id="Path" fill="#EA4335"></path>
                        <path d="M227.43,302.61 C250.031719,302.577789 269.801424,287.387304 275.653601,265.556346 C281.505777,243.725387 271.98505,220.683082 252.43,209.35 L77,108 C61.5029256,98.4125582 42.0170339,98.0154994 26.1422639,106.963686 C10.267494,115.911872 0.518089903,132.78809 0.694131578,151.010234 C0.874990168,169.232377 10.9530316,185.914425 27,194.55 L202.49,295.9 C210.066408,300.296246 218.670494,302.61 227.43,302.61 L227.43,302.61 Z" id="Path" fill="#4285F4"></path>
                        <path d="M400,302.61 C408.759506,302.61 417.363592,300.296246 424.94,295.9 L600.44,194.58 L478.11,149.8 L375,209.35 C355.44495,220.683082 345.924223,243.725387 351.776399,265.556346 C357.628576,287.387304 377.398281,302.577789 400,302.61 Z" id="Path" fill="#FBBC04"></path>
                        <path d="M575.4,201.29 C598.001719,201.257789 617.771424,186.067304 623.623601,164.236346 C629.475777,142.405387 619.95505,119.363082 600.4,108.03 L424.94,6.7 C401.126926,-6.20627545 371.366985,2.19555411 357.819151,25.6495648 C344.271316,49.1035755 351.862333,79.0805887 374.94,93.26 L550.46,194.58 C558.038792,198.970515 566.641308,201.284986 575.4,201.29 L575.4,201.29 Z" id="Path" fill="#0F9D58"></path>
                    </g>
                </g>
            </g>
        </g>
    </g>
</svg>